<svg width="48" height="48" viewBox="0 0 48 48" fill="none" xmlns="http://www.w3.org/2000/svg">
  <path fill-rule="evenodd" clip-rule="evenodd"
    d="M16.2925 0C16.2925 0 0 18.7108 0 31.7788C0 40.5973 7.06784 47.7722 15.8712 47.9947C16.0091 47.9981 16.1475 47.9998 16.2863 47.9999L16.2925 48H16.2926C16.4221 48 16.5512 47.9981 16.68 47.9951C16.7048 47.9946 16.7296 47.9938 16.7543 47.9929C16.7666 47.9925 16.779 47.9921 16.7913 47.9917C16.8864 47.9889 16.9815 47.9855 17.0762 47.981C17.1132 47.9793 17.1501 47.9773 17.1869 47.9753C17.2917 47.9697 17.3963 47.9632 17.5006 47.9556L17.5271 47.9537L17.5662 47.9509C25.9689 47.3038 32.5848 40.3107 32.5848 31.7788C32.585 18.7108 16.2925 0 16.2925 0ZM22.6691 40.6956L20.9137 38.492C23.4618 36.4799 24.6998 34.0166 24.5932 31.1705C24.5139 29.0549 23.701 27.4927 23.6928 27.4775L26.1815 26.147C26.2276 26.2324 27.3114 28.2717 27.416 31.0657C27.5137 33.6717 26.7694 37.4578 22.6691 40.6956ZM35.7423 10.5764L34.6751 9.35072L33.6078 10.5764C33.5164 10.6815 32.0315 12.3945 30.119 15.0118C33.633 21.4791 35.4099 27.1018 35.4099 31.7789C35.4099 34.3472 34.9041 36.8402 33.9064 39.1885C32.9434 41.4554 31.5653 43.4906 29.8105 45.2378C29.374 45.6724 28.9194 46.0838 28.4479 46.4714C30.3412 47.4705 32.4636 48 34.6751 48C42.0224 48 48 42.0487 48 34.7334C48 24.7683 36.2428 11.1512 35.7423 10.5764ZM41.042 41.6109L39.2866 39.4073C40.8856 38.1448 41.6785 36.6121 41.6434 34.8517C41.6158 33.4681 41.0814 32.4248 41.072 32.4064L41.0719 32.4062L42.3205 31.7488L43.5648 31.0836C43.6491 31.2397 44.3893 32.6654 44.4635 34.6477C44.5343 36.536 43.9981 39.2767 41.042 41.6109Z"
    fill="#348183" />
</svg>