<svg width="48" height="41" viewBox="0 0 48 41" fill="none" xmlns="http://www.w3.org/2000/svg">
  <path fill-rule="evenodd" clip-rule="evenodd"
    d="M16.8176 0C18.5863 0 20.2782 0.99261 21.4598 2.72346C22.5452 4.31339 23.143 6.40153 23.1431 8.60302C23.1431 10.8046 22.5452 12.8926 21.4598 14.4826C20.2782 16.2134 18.5863 17.2061 16.8176 17.2061C15.0489 17.2061 13.357 16.2134 12.1754 14.4826C11.0898 12.8926 10.4921 10.8045 10.4921 8.60302C10.4921 6.40153 11.0899 4.31348 12.1754 2.72346C13.3569 0.992703 15.0489 0 16.8176 0ZM35.8247 2.72355C34.643 0.992703 32.951 9.31416e-05 31.1824 9.31416e-05C29.4137 9.31416e-05 27.7218 0.992796 26.5402 2.72355C25.4548 4.31357 24.8569 6.40162 24.8569 8.60312C24.8569 10.8046 25.4547 12.8927 26.5402 14.4827C27.7218 16.2134 29.4138 17.2061 31.1824 17.2061C32.9511 17.2061 34.643 16.2134 35.8247 14.4827C36.9101 12.8927 37.5079 10.8046 37.5079 8.60312C37.5079 6.40162 36.9102 4.31348 35.8247 2.72355ZM35.4945 23.7594C32.265 19.8855 28.1829 17.752 24 17.752C19.817 17.752 15.7349 19.8855 12.5055 23.7594C9.60275 27.2415 7.86978 31.63 7.86978 35.4985C7.86978 37.3777 8.44803 38.8091 9.58841 39.7531C10.714 40.6849 12.2 41.0001 13.8579 41C15.622 41 17.5808 40.6431 19.5054 40.2923C21.1872 39.9858 22.7757 39.6963 24.0001 39.6963C25.0568 39.6963 26.5468 39.9711 28.1239 40.2619C31.8099 40.9419 35.9878 41.7123 38.4012 39.7187C39.5485 38.771 40.1302 37.3511 40.1302 35.4985C40.1303 31.63 38.3973 27.2415 35.4945 23.7594ZM47.7205 16.2279C47.2442 14.618 46.2231 13.4482 44.8457 12.9342C43.7372 12.5206 42.4859 12.5907 41.3223 13.1318C39.7187 13.8773 38.4079 15.4167 37.7264 17.3553C37.1694 18.9394 37.0999 20.6138 37.5309 22.0703C38.0073 23.6801 39.0283 24.8499 40.4058 25.3639C40.8826 25.5418 41.3855 25.6302 41.8967 25.6302C42.5742 25.6302 43.2661 25.4748 43.9294 25.1664C45.533 24.4209 46.8437 22.8814 47.5252 20.943V20.9429C48.0821 19.3588 48.1516 17.6843 47.7205 16.2279ZM6.67784 13.1317C8.28135 13.8772 9.59207 15.4165 10.2737 17.3551C10.8306 18.9393 10.9001 20.6138 10.4693 22.0702C9.99294 23.6799 8.972 24.8497 7.59425 25.3639C7.11763 25.5417 6.61456 25.6301 6.10344 25.6301C5.42591 25.6301 4.73412 25.4747 4.07075 25.1663C2.46725 24.4208 1.15662 22.8814 0.474868 20.9429V20.9428C-0.082101 19.3587 -0.15157 17.6842 0.279399 16.2278C0.755744 14.618 1.77678 13.4482 3.15434 12.9341C4.26275 12.5206 5.51412 12.5906 6.67784 13.1317Z"
    fill="#348183" />
</svg>