<svg width="48" height="48" viewBox="0 0 48 48" fill="none" xmlns="http://www.w3.org/2000/svg">
  <path fill-rule="evenodd" clip-rule="evenodd"
    d="M48 17.5692L41.9313 13.6476L41.5692 6.43078L34.3524 6.06872L30.4308 0L24 3.29419L17.5692 0L13.6476 6.06872L6.43078 6.43078L6.06872 13.6476L0 17.5692L3.29419 24L0 30.4308L6.06872 34.3524L6.43078 41.5692L13.6476 41.9313L17.5692 48L24 44.7058L30.4308 48L34.3524 41.9313L41.5692 41.5692L41.9313 34.3524L48 30.4308L44.7058 24L48 17.5692ZM24 39.6933C15.3472 39.6933 8.30672 32.6528 8.30672 24C8.30672 15.3472 15.3472 8.30672 24 8.30672C32.6528 8.30672 39.6933 15.3472 39.6933 24C39.6933 32.6528 32.6528 39.6933 24 39.6933ZM11.1206 24C11.1206 16.8985 16.8986 11.1206 24 11.1206C31.1014 11.1206 36.8794 16.8986 36.8794 24C36.8794 31.1014 31.1014 36.8794 24 36.8794C16.8986 36.8794 11.1206 31.1015 11.1206 24Z"
    fill="#348183" />
</svg>